<svg id="Group_4188" data-name="Group 4188" xmlns="http://www.w3.org/2000/svg" width="48.195" height="37.366" viewBox="0 0 48.195 37.366">
  <path id="Path_5213" data-name="Path 5213" d="M87.455,10.429a.819.819,0,0,0,0,1.638h.186a.819.819,0,0,0,0-1.638Z" transform="translate(-73.68 -0.924)"/>
  <path id="Path_5214" data-name="Path 5214" d="M130.6,11.363h-2.8V8.742a.818.818,0,0,0-.819-.819h-5.4a.821.821,0,0,0-.819.819v2.621H93.881V8.742a.817.817,0,0,0-.815-.819H87.658a.821.821,0,0,0-.819.819v2.621h-2.8a.821.821,0,0,0-.819.819v6.065a.821.821,0,0,0,.819.819h2.8V44.474a.817.817,0,0,0,.819.815h39.32a.815.815,0,0,0,.819-.815V22.131a.819.819,0,1,0-1.638,0v21.52H88.477V19.066h4.589a.819.819,0,0,0,0-1.638H84.858V13h44.918v4.426h-29.5a.819.819,0,1,0,0,1.638H130.6a.821.821,0,0,0,.819-.819V12.182A.821.821,0,0,0,130.6,11.363Zm-42.119,0v-1.8h3.77v1.8Zm33.915,0v-1.8h3.766v1.8Z" transform="translate(-83.22 -7.923)"/>
  <path id="Path_5215" data-name="Path 5215" d="M90.116,30.32a.821.821,0,0,0,1.032-.25L98.874,19.5a.816.816,0,0,0-.66-1.3H95.521L98.1,12.994a.807.807,0,0,0-.038-.8.816.816,0,0,0-.694-.387H90.484a.819.819,0,0,0-.808.69l-1.528,9.668a.813.813,0,0,0,.182.652.823.823,0,0,0,.611.3l2.681.057L89.7,29.345A.822.822,0,0,0,90.116,30.32Zm-.2-8.822,1.274-8.048h4.862l-2.583,5.207A.819.819,0,0,0,94.2,19.84h2.4l-3.876,5.295.781-2.515a.82.82,0,0,0-.762-1.062Z" transform="translate(-69.487 2.935)"/>
</svg>
