<svg id="Group_4187" data-name="Group 4187" xmlns="http://www.w3.org/2000/svg" width="42.12" height="55.535" viewBox="0 0 42.12 55.535">
  <path id="Path_5311" data-name="Path 5311" d="M124.421,63.927l1.005-3.745a.95.95,0,0,0-.669-1.158l-5.048-1.35a.951.951,0,0,0-1.158.669l-1,3.75a7.112,7.112,0,0,0-5.511,5.131l-.258.966h0l-3.308,12.377a.943.943,0,0,0,.664,1.158l1.7.455-.6,2.255-4.165-1.145a.98.98,0,0,0-.5,0L93.859,86.5,93.238,84.2l9.252-2.474a.95.95,0,0,0,.572-.441.932.932,0,0,0,.1-.717L99.85,68.192l0,0h0l-.258-.966a7.113,7.113,0,0,0-5.507-5.131l-1.005-3.75a.947.947,0,0,0-1.154-.669l-5.048,1.35a.95.95,0,0,0-.669,1.158l1,3.745A7.118,7.118,0,0,0,85,71.125l1.272,4.746h0l2.3,8.6a.945.945,0,0,0,.909.7.92.92,0,0,0,.245-.035l1.7-.45L92.036,87l-4.807,1.32a.949.949,0,0,0-.695.913v9.729a.946.946,0,0,0,.944.944h4.174a14.2,14.2,0,0,0,27.774,3.16.945.945,0,1,0-1.809-.546A12.318,12.318,0,0,1,93.54,99.909h2.845a.944.944,0,0,0,0-1.888H88.422V89.953l17.394-4.773,17.39,4.773v8.068H111.93a6.2,6.2,0,1,0,0,1.888h12.22a.943.943,0,0,0,.944-.944V89.236a.949.949,0,0,0-.695-.913l-12.346-3.391.6-2.268,9.252,2.474a.934.934,0,0,0,1.158-.669l2.3-8.6h0l1.267-4.746A7.109,7.109,0,0,0,124.421,63.927ZM88.334,76.3,97,73.975a.943.943,0,0,0-.485-1.822l-8.671,2.321-.52-1.958,10.944-2.924,1.534,5.73L88.855,78.249Zm-.061-15.69L91.5,59.74l.6,2.242a6.866,6.866,0,0,0-1.215.21l-.852.227a7.154,7.154,0,0,0-1.158.424Zm2.242,3.636.852-.227a5.146,5.146,0,0,1,1.35-.179,5.235,5.235,0,0,1,5.048,3.872l.013.057L86.835,70.692l-.013-.057A5.226,5.226,0,0,1,90.515,64.242Zm-1.171,15.83,10.944-2.924.8,2.994L91.84,82.615h0l-1.7.455Zm16.472,23.2a4.309,4.309,0,1,1,4.3-4.309A4.315,4.315,0,0,1,105.816,103.274Zm7.543-33.683,10.948,2.924-.524,1.958-10.944-2.928Zm6.774-9.851,3.225.865-.6,2.238a7.258,7.258,0,0,0-1.154-.424l-.852-.227a6.981,6.981,0,0,0-1.219-.21Zm.127,4.274.852.227a5.229,5.229,0,0,1,3.7,6.394l-.017.057-10.944-2.928.013-.052A5.235,5.235,0,0,1,120.26,64.014Zm1.224,19.055L112.232,80.6h0l-1.691-.455,1.809-6.774L123.3,76.3l-.524,1.954-4.764-1.276a.946.946,0,0,0-.489,1.827l4.764,1.272Z" transform="translate(-84.755 -57.642)"/>
  <path id="Path_5312" data-name="Path 5312" d="M92.757,61.951l-.288-.079A.946.946,0,1,0,91.98,63.7l.293.074a.92.92,0,0,0,.245.035.945.945,0,0,0,.24-1.857Z" transform="translate(-62.763 -43.489)"/>
</svg>
