<svg id="Group_4189" data-name="Group 4189" xmlns="http://www.w3.org/2000/svg" width="49.341" height="49.341" viewBox="0 0 49.341 49.341">
  <path id="Path_5256" data-name="Path 5256" d="M56.378,74.8l-2.9-.047a15.2,15.2,0,0,0-.924-2.283l2.023-2.023a1.716,1.716,0,0,0,0-2.423l-2.858-2.854a1.709,1.709,0,0,0-2.423,0L47.21,67.187a14.889,14.889,0,0,0-2.268-.959V63.366a1.715,1.715,0,0,0-1.712-1.712H39.188a1.715,1.715,0,0,0-1.712,1.712l-.047,2.9a12.576,12.576,0,0,0-2.221.92.839.839,0,1,0,.784,1.483,10.994,10.994,0,0,1,1.93-.8,1.722,1.722,0,0,0,1.231-1.643l.035-2.9,4.077.035v2.862A1.727,1.727,0,0,0,44.5,67.871a11,11,0,0,1,1.93.8,1.726,1.726,0,0,0,2.031-.291l2.074-2.023,2.858,2.908-2.023,2.023a1.72,1.72,0,0,0-.291,2.031,10.753,10.753,0,0,1,.8,1.93,1.727,1.727,0,0,0,1.643,1.231l2.9.035-.035,4.077H53.516a1.722,1.722,0,0,0-1.643,1.231,10.754,10.754,0,0,1-.8,1.93,1.726,1.726,0,0,0,.291,2.031l2.023,2.074L50.53,90.715a.839.839,0,0,0,0,1.184.834.834,0,0,0,1.188,0l2.858-2.854a1.716,1.716,0,0,0,0-2.423l-2.019-2.085a14.95,14.95,0,0,0,.959-2.268h2.862a1.715,1.715,0,0,0,1.712-1.712V76.514A1.715,1.715,0,0,0,56.378,74.8Z" transform="translate(-24.328 -46.076)"/>
  <path id="Path_5257" data-name="Path 5257" d="M54.172,84.537a10.994,10.994,0,0,1-1.93.8,1.723,1.723,0,0,0-1.231,1.643l-.035,2.9L46.9,89.841V86.98a1.722,1.722,0,0,0-1.231-1.643,10.994,10.994,0,0,1-1.93-.8,1.714,1.714,0,0,0-2.031.291l-2.074,2.023-2.858-2.908L38.8,81.92a1.714,1.714,0,0,0,.291-2.031,11.3,11.3,0,0,1-.8-1.93,1.715,1.715,0,0,0-1.643-1.231l-2.9-.035.039-4.077h2.858a1.719,1.719,0,0,0,1.643-1.231,11.3,11.3,0,0,1,.8-1.93,1.714,1.714,0,0,0-.291-2.031l-2.023-2.074.928-.928a.839.839,0,0,0-1.188-1.184l-.924.924a1.706,1.706,0,0,0,0,2.423l2.015,2.085a15.123,15.123,0,0,0-.959,2.268H33.79a1.716,1.716,0,0,0-1.716,1.712v4.042a1.716,1.716,0,0,0,1.716,1.712l2.9.047a15,15,0,0,0,.928,2.283l-2.023,2.023a1.716,1.716,0,0,0,0,2.423l2.858,2.854a1.711,1.711,0,0,0,2.419,0l2.085-2.015a14.891,14.891,0,0,0,2.268.959v2.862a1.715,1.715,0,0,0,1.712,1.712h4.042a1.715,1.715,0,0,0,1.712-1.712l.047-2.9a12.457,12.457,0,0,0,2.221-.92.839.839,0,0,0-.784-1.483Z" transform="translate(-32.074 -42.212)"/>
  <path id="Path_5258" data-name="Path 5258" d="M34.478,64.223a.841.841,0,0,0,.594-.245l.05-.05a.837.837,0,0,0-1.184-1.184l-.054.05a.837.837,0,0,0,.594,1.429Z" transform="translate(-27.562 -43.647)"/>
  <path id="Path_5259" data-name="Path 5259" d="M40.317,75.139a5.244,5.244,0,1,0-5.246-5.246A5.251,5.251,0,0,0,40.317,75.139Zm0-8.811a3.567,3.567,0,1,1-3.569,3.565A3.57,3.57,0,0,1,40.317,66.328Z" transform="translate(-23.434 -37.435)"/>
  <path id="Path_5260" data-name="Path 5260" d="M60.369,70.137l-1.542-.656a9.177,9.177,0,0,0,.016-1.266l1.553-.621a1.417,1.417,0,0,0,.784-1.837h0l-.986-2.45a1.407,1.407,0,0,0-1.833-.784l-1.557.621a8.394,8.394,0,0,0-.881-.9l.656-1.542a1.413,1.413,0,0,0-.742-1.852l-2.431-1.037a1.414,1.414,0,0,0-1.852.742L50.9,60.1a9.174,9.174,0,0,0-1.266-.016l-.621-1.553a1.417,1.417,0,0,0-1.837-.784l-2.454.986a1.394,1.394,0,0,0-.769.753,1.372,1.372,0,0,0-.012,1.079l.621,1.557a8.4,8.4,0,0,0-.9.881l-1.542-.656a1.413,1.413,0,0,0-1.852.742L39.23,65.516a1.414,1.414,0,0,0,.742,1.852l1.542.656a8.605,8.605,0,0,0-.016,1.266l-1.553.621a1.414,1.414,0,0,0-.784,1.837l.986,2.454a1.416,1.416,0,0,0,1.833.784l1.553-.625a8.852,8.852,0,0,0,.885.9L43.761,76.8a1.413,1.413,0,0,0,.742,1.852l2.431,1.037a1.414,1.414,0,0,0,1.852-.742l.656-1.542a8.058,8.058,0,0,0,1.262.016l.625,1.553a1.414,1.414,0,0,0,1.312.885,1.4,1.4,0,0,0,.524-.1l2.45-.982a1.414,1.414,0,0,0,.784-1.837l-.621-1.553a8.434,8.434,0,0,0,.9-.885l1.542.656a1.389,1.389,0,0,0,1.079.016,1.42,1.42,0,0,0,.773-.757l1.037-2.431a1.414,1.414,0,0,0-.742-1.852Zm-1.732,3.378-1.476-.629a1.413,1.413,0,0,0-1.643.4,6.959,6.959,0,0,1-.936.916,1.409,1.409,0,0,0-.435,1.631l.6,1.487-1.957.788-.6-1.491a1.411,1.411,0,0,0-1.32-.881l-.12,0a7.053,7.053,0,0,1-1.312-.016,1.41,1.41,0,0,0-1.46.846l-.629,1.476-1.942-.827.629-1.476a1.414,1.414,0,0,0-.4-1.643,7.2,7.2,0,0,1-.916-.936,1.409,1.409,0,0,0-1.631-.435l-1.487.6-.784-1.957,1.487-.6a1.415,1.415,0,0,0,.878-1.441,7.059,7.059,0,0,1,.016-1.312,1.416,1.416,0,0,0-.847-1.46l-1.476-.629L41.7,63.99l1.476.629a1.417,1.417,0,0,0,1.643-.4,6.986,6.986,0,0,1,.936-.92,1.4,1.4,0,0,0,.435-1.627l-.6-1.491,1.957-.784.6,1.487a1.41,1.41,0,0,0,1.441.878,7.059,7.059,0,0,1,1.312.016,1.413,1.413,0,0,0,1.46-.846l.629-1.476,1.942.831L54.3,61.762a1.417,1.417,0,0,0,.4,1.643,7.225,7.225,0,0,1,.92.936,1.409,1.409,0,0,0,1.631.435l1.487-.6.784,1.957-1.487.6a1.412,1.412,0,0,0-.878,1.444,7.016,7.016,0,0,1-.016,1.309,1.411,1.411,0,0,0,.846,1.46l1.476.633Z" transform="translate(-11.94 -57.642)"/>
  <path id="Path_5261" data-name="Path 5261" d="M42.693,59.991a.839.839,0,1,0,.769,1.491,1.837,1.837,0,1,1-.788,2.473.837.837,0,1,0-1.487.769,3.509,3.509,0,0,0,3.126,1.9,3.459,3.459,0,0,0,1.608-.392,3.512,3.512,0,1,0-3.227-6.24Z" transform="translate(-6.076 -52)"/>
</svg>
