<svg id="Group_4224" data-name="Group 4224" xmlns="http://www.w3.org/2000/svg" width="40.975" height="43.027" viewBox="0 0 40.975 43.027">
  <path id="Path_5290" data-name="Path 5290" d="M118.315,83.215h-5.11a14.807,14.807,0,0,0-14.79,14.79v3.826L88.9,110.673a6.576,6.576,0,0,0-2.1,4.808v3.674h-.525a.73.73,0,0,0-.731.731v1.974H84.254a.733.733,0,0,0-.731.731v2.919a.733.733,0,0,0,1.466,0v-2.187h5.079v2.187a.731.731,0,0,0,1.463,0v-2.919a.731.731,0,0,0-.731-.731H89.516v-1.974a.731.731,0,0,0-.731-.731H88.26v-3.674a5.118,5.118,0,0,1,1.629-3.738l9.545-8.861h12.83A12.249,12.249,0,0,0,124.5,90.647V89.4A6.189,6.189,0,0,0,118.315,83.215ZM87,121.86v-1.243h1.05v1.243Zm36.031-31.213a10.783,10.783,0,0,1-10.771,10.771H99.878V98.005a13.342,13.342,0,0,1,13.328-13.328h5.11a4.724,4.724,0,0,1,4.72,4.72Z" transform="translate(-83.523 -83.215)"/>
  <path id="Path_5291" data-name="Path 5291" d="M93.756,86.83l-.088.125a.732.732,0,1,0,1.192.85l.108-.159a.731.731,0,0,0-1.212-.816Z" transform="translate(-59.638 -75.358)"/>
  <path id="Path_5292" data-name="Path 5292" d="M103.216,84.23h-2.645A11.455,11.455,0,0,0,89.13,95.672v.62a.733.733,0,0,0,.731.731h8.181a8.945,8.945,0,0,0,5.022-1.534.732.732,0,1,0-.819-1.212,7.475,7.475,0,0,1-4.2,1.283H90.593a9.991,9.991,0,0,1,9.979-9.867h2.645a2.35,2.35,0,0,1,2.347,2.347,7.522,7.522,0,0,1-.362,2.313.731.731,0,0,0,1.392.45,8.978,8.978,0,0,0,.433-2.763A3.815,3.815,0,0,0,103.216,84.23Z" transform="translate(-70.144 -80.793)"/>
</svg>
