<svg xmlns="http://www.w3.org/2000/svg" width="54" height="56" viewBox="0 0 54 56">
  <g id="Group_4158" data-name="Group 4158" transform="translate(-189.08 -275.74)">
    <path id="Path_5197" data-name="Path 5197" d="M225.862,275.74q-.345,0-.689.03v-.03H207.705a12.633,12.633,0,0,0-9.3,4.11,35.372,35.372,0,0,0,1.189,49.1,9.5,9.5,0,0,0,6.721,2.79h18.857v-.03q.343.03.689.03c9.488,0,17.218-12.56,17.218-28S235.35,275.74,225.862,275.74Zm-18.157,2H219.48a16.031,16.031,0,0,0-2.677,2.2l-2.4-1.16a1.206,1.206,0,0,0-1.049,0l-3.166,1.53-3.156-1.53a1.2,1.2,0,0,0-1.048,0l-3.156,1.53-1.249-.61A10.6,10.6,0,0,1,207.705,277.74Zm-7.821,3.46.07-.07,2.337,1.14a1.2,1.2,0,0,0,1.059,0l3.156-1.53,3.156,1.53a1.184,1.184,0,0,0,1.059.01l3.166-1.54,1.538.75a25.2,25.2,0,0,0-2.677,4.12l-2.367-1.11a1.233,1.233,0,0,0-1.029,0l-3.305,1.55-3.316-1.55a1.21,1.21,0,0,0-1.019,0l-3.306,1.55-1.7-.8A34.543,34.543,0,0,1,199.884,281.2Zm-4.234,5.76,2.247,1.06a1.3,1.3,0,0,0,.509.11,1.262,1.262,0,0,0,.51-.11l3.3-1.55,3.306,1.55a1.233,1.233,0,0,0,1.029,0l3.306-1.55,2.017.94a34.22,34.22,0,0,0-1.4,3.76l-2.147-.96a1.194,1.194,0,0,0-.979,0l-3.506,1.57-3.505-1.57a1.194,1.194,0,0,0-.979,0l-3.506,1.57-2.147-.97A33.827,33.827,0,0,1,195.65,286.96Zm-2.657,5.72,2.377,1.07a1.193,1.193,0,0,0,.489.1,1.241,1.241,0,0,0,.5-.1l3.5-1.57,3.5,1.57a1.217,1.217,0,0,0,.989,0l3.5-1.57,2.088.93a39.7,39.7,0,0,0-.8,3.95l-2.237-.97a1.228,1.228,0,0,0-.959,0l-3.626,1.57-3.625-1.57a1.228,1.228,0,0,0-.959,0l-3.615,1.57-2.258-.98A33.8,33.8,0,0,1,192.993,292.68Zm-1.518,6.02,2.157.94a1.228,1.228,0,0,0,.959,0l3.615-1.58,3.616,1.58a1.382,1.382,0,0,0,.489.1,1.33,1.33,0,0,0,.48-.1l3.625-1.58,2.457,1.07c-.12,1.19-.2,2.41-.22,3.65l-1.917-.82a1.2,1.2,0,0,0-.949,0l-3.705,1.59-3.716-1.59a1.2,1.2,0,0,0-.949,0l-3.7,1.59-2.607-1.12A33.382,33.382,0,0,1,191.475,298.7Zm-.39,5.9,2.158.92a1.275,1.275,0,0,0,.479.09,1.258,1.258,0,0,0,.469-.09l3.706-1.59,3.705,1.59a1.2,1.2,0,0,0,.949,0l3.715-1.59,2.387,1.02c.03,1.17.11,2.32.22,3.44l-1.768-.76a1.147,1.147,0,0,0-.959,0l-3.635,1.57-3.635-1.57a1.17,1.17,0,0,0-.969,0l-3.626,1.57-2.946-1.27C191.205,306.82,191.115,305.71,191.085,304.6Zm.64,5.67,2.067.9a1.193,1.193,0,0,0,.489.1,1.149,1.149,0,0,0,.48-.1l3.635-1.57,3.626,1.57a1.168,1.168,0,0,0,.968,0l3.636-1.57,2.547,1.1q.269,1.68.659,3.27l-1.418-.61a1.3,1.3,0,0,0-.949,0l-3.706,1.59-3.705-1.59a1.248,1.248,0,0,0-.949,0l-3.695,1.59-2.816-1.21A31.766,31.766,0,0,1,191.725,310.27Zm1.8,6.04,1.409.61a1.2,1.2,0,0,0,.948,0l3.706-1.58,3.695,1.58a1.317,1.317,0,0,0,.479.09,1.267,1.267,0,0,0,.47-.09l3.715-1.58,2.567,1.09c.34,1.06.709,2.08,1.109,3.05l-.749-.32a1.2,1.2,0,0,0-.949,0l-3.706,1.58-3.705-1.58a1.2,1.2,0,0,0-.949,0l-3.695,1.58-2.837-1.21A30.555,30.555,0,0,1,193.522,316.31Zm5.254,8.79c-.709-.85-1.369-1.73-1.988-2.64l.609.26a1.27,1.27,0,0,0,.939,0l3.706-1.59,3.7,1.59a1.27,1.27,0,0,0,.939,0l3.705-1.59,2.547,1.09a24.189,24.189,0,0,0,1.588,2.57,1.263,1.263,0,0,0-.549.08l-3.716,1.58-3.715-1.59a1.248,1.248,0,0,0-.949,0l-3.705,1.58Zm7.54,4.64a7.444,7.444,0,0,1-4.174-1.28,1.765,1.765,0,0,0,.219-.05l3.716-1.58,3.705,1.59a1.1,1.1,0,0,0,.469.1,1.149,1.149,0,0,0,.48-.1l3.715-1.57,2.936,1.25a15.264,15.264,0,0,0,2.1,1.64Zm19.546,0c-8.4,0-15.231-11.66-15.231-26s6.831-26,15.231-26,15.22,11.66,15.22,26S234.251,329.74,225.862,329.74Z"/>
    <path id="Path_5198" data-name="Path 5198" d="M225.862,282.94c-6.642,0-11.845,9.14-11.845,20.8s5.2,20.8,11.845,20.8,11.835-9.14,11.835-20.8S232.493,282.94,225.862,282.94Zm0,39.6c-5.334,0-9.848-8.61-9.848-18.8s4.514-18.8,9.848-18.8,9.837,8.61,9.837,18.8S231.2,322.54,225.862,322.54Z"/>
  </g>
</svg>
