<svg xmlns="http://www.w3.org/2000/svg" width="56.416" height="57.856" viewBox="0 0 56.416 57.856">
  <g id="Group_4223" data-name="Group 4223" transform="matrix(0.951, -0.309, 0.309, 0.951, -4.415, 17.104)">
    <g id="Group_4220" data-name="Group 4220" transform="translate(0 4.876)">
      <g id="Group_4218" data-name="Group 4218" transform="translate(0 0)">
        <g id="Group_4217" data-name="Group 4217">
          <path id="Path_5338" data-name="Path 5338" d="M2611.8,1000.94a.839.839,0,0,1-.774-.514,11.647,11.647,0,0,1,.015-8.435.839.839,0,0,1,1.024-.467l1.259.4.159-.5-8-2.538a3.723,3.723,0,0,0-2.858.245l-1.23.637.31.147a5.344,5.344,0,0,1,2.572,4.281l1.72.546.419-.84c.01-.021.021-.041.033-.061a2.1,2.1,0,0,1,1.221-.934l1.268-.437a.84.84,0,1,1,.548,1.587l-1.291.445-.053.016a.432.432,0,0,0-.243.172l-.719,1.444a.84.84,0,0,1-1.006.426l-2.953-.937a.84.84,0,0,1-.585-.789c-.018-1.277-.6-2.9-1.652-3.4l-1.839-.872a.84.84,0,0,1-.026-1.5l2.733-1.416a5.392,5.392,0,0,1,4.138-.354l8.116,2.575a1.555,1.555,0,0,1,1.012,1.953l-.234.737a1.558,1.558,0,0,1-1.953,1.013l-.618-.2a10.248,10.248,0,0,0,.257,6.408.84.84,0,0,1-.773,1.166Z" transform="translate(-2589.64 -987.026)"/>
          <path id="Path_5339" data-name="Path 5339" d="M2624.918,1053.621a1.607,1.607,0,0,1-.488-.076l-3.146-1h0a1.607,1.607,0,0,1-1.046-2.019l.357-1.125a1.61,1.61,0,0,1,2.019-1.046l3.147,1a1.608,1.608,0,0,1,1.046,2.019l-.357,1.125a1.611,1.611,0,0,1-1.531,1.122Zm-3.058-2.653,3.01.955.314-.989-3.01-.955Z" transform="translate(-2608.729 -1041.423)"/>
          <path id="Path_5340" data-name="Path 5340" d="M2532.215,1099.66a2.19,2.19,0,0,1-.663-.1l-11.99-3.8a2.2,2.2,0,0,1-1.429-2.757l4.279-13.485a2.9,2.9,0,0,1,.985-1.419,14.576,14.576,0,0,0,4.094-5,2.17,2.17,0,0,1,.986-1.011l1.76-.889a.84.84,0,1,1,.757,1.5l-1.76.889a.479.479,0,0,0-.222.223,16.028,16.028,0,0,1-4.583,5.616,1.231,1.231,0,0,0-.417.6l-4.279,13.485a.518.518,0,0,0,.336.649l11.99,3.8a.517.517,0,0,0,.649-.336l4.034-12.716a1.257,1.257,0,0,0-.088-.963c-.305-.591-.594-1.136-.849-1.617-1.641-3.1-2.465-4.658-1.5-6.645.173-.355.215-.6.124-.742l-.924-1.395a.84.84,0,0,1,1.4-.927l.923,1.395a2.314,2.314,0,0,1-.014,2.4c-.571,1.172-.166,2.03,1.472,5.125.256.484.547,1.033.856,1.631a2.925,2.925,0,0,1,.2,2.243l-4.034,12.716A2.2,2.2,0,0,1,2532.215,1099.66Z" transform="translate(-2518.031 -1061.687)"/>
        </g>
        <path id="Path_5341" data-name="Path 5341" d="M2579.691,1187.43a.833.833,0,0,1-.254-.04l-8.3-2.633a2.7,2.7,0,0,1-1.67-3.427l1.835-5.783a2.82,2.82,0,0,1,1.3-1.614,2.549,2.549,0,0,1,2.042-.223l8.3,2.633a.84.84,0,0,1-.508,1.6l-8.3-2.633a.884.884,0,0,0-.709.085,1.147,1.147,0,0,0-.523.66l-1.835,5.783a1.023,1.023,0,0,0,.577,1.319l8.3,2.633a.84.84,0,0,1-.253,1.64Z" transform="translate(-2563.589 -1152.705)"/>
      </g>
      <g id="Group_4219" data-name="Group 4219" transform="translate(25.25 0.911)">
        <path id="Path_5342" data-name="Path 5342" d="M2773.518,1038.492a.846.846,0,0,1-.254-.039l-8.15-2.586a.84.84,0,1,1,.508-1.6l8.15,2.586a.84.84,0,0,1-.254,1.64Z" transform="translate(-2762.183 -1029.853)"/>
        <path id="Path_5343" data-name="Path 5343" d="M2757.389,997.925a.84.84,0,0,1-.1-1.673l8.843-1.084a.84.84,0,1,1,.2,1.667l-8.842,1.084A.857.857,0,0,1,2757.389,997.925Z" transform="translate(-2755.099 -995.161)"/>
        <path id="Path_5344" data-name="Path 5344" d="M2750.288,1060.7a.837.837,0,0,1-.639-.294l-5.864-6.858a.84.84,0,1,1,1.276-1.091l5.864,6.857a.839.839,0,0,1-.637,1.385Z" transform="translate(-2743.584 -1045.784)"/>
      </g>
    </g>
    <path id="Path_5345" data-name="Path 5345" d="M2849.926,969.97a.84.84,0,0,1,0-1.679,3.755,3.755,0,0,0,2.218-6.784.84.84,0,0,1,.339-1.5,2.344,2.344,0,0,0,.859-4.252.839.839,0,0,1-.307-1.025,3.757,3.757,0,0,0-2.929-5.176.839.839,0,0,1-.722-.821,2.344,2.344,0,0,0-4.078-1.549.84.84,0,0,1-1.349-.147,3.754,3.754,0,0,0-6.127-.555.84.84,0,0,1-1.283-1.083,5.432,5.432,0,0,1,8.3-.008,4.022,4.022,0,0,1,6.152,2.635,5.439,5.439,0,0,1,3.8,6.748,4.024,4.024,0,0,1-.643,6.355,5.431,5.431,0,0,1-4.229,8.844Z" transform="translate(-2800.714 -943.468)"/>
    <path id="Path_5346" data-name="Path 5346" d="M2876.681,1180.894a.839.839,0,0,1-.437-1.557,4.149,4.149,0,0,0,1.312-1.277.839.839,0,0,1,1.133-.265,2.344,2.344,0,0,0,2.768-.28.84.84,0,0,1,1.128,1.244,4.024,4.024,0,0,1-4.06.807,5.839,5.839,0,0,1-1.408,1.206A.836.836,0,0,1,2876.681,1180.894Z" transform="translate(-2835.784 -1151.121)"/>
    <path id="Path_5347" data-name="Path 5347" d="M2847.8,1202.375a.84.84,0,1,1,0-1.679c.115,0,.231,0,.346-.014a.84.84,0,1,1,.14,1.673C2848.123,1202.368,2847.96,1202.375,2847.8,1202.375Z" transform="translate(-2810.136 -1171.884)"/>
    <path id="Path_5348" data-name="Path 5348" d="M2756,1156.053a.836.836,0,0,1-.458-.137,5.831,5.831,0,0,1-1.235-1.086,5.115,5.115,0,0,1-2.4.589,5.168,5.168,0,0,1-5.163-5.162.839.839,0,1,1,1.679,0,3.487,3.487,0,0,0,3.484,3.483,3.452,3.452,0,0,0,2.1-.7.84.84,0,0,1,1.217.222,4.148,4.148,0,0,0,1.233,1.254.84.84,0,0,1-.46,1.543Z" transform="translate(-2721.144 -1126.362)"/>
    <path id="Path_5349" data-name="Path 5349" d="M2933.448,1181.225a2.291,2.291,0,0,1-2.288-2.288v-3.367a.84.84,0,1,1,1.679,0v3.367a.609.609,0,0,0,1.219,0v-11.83a.839.839,0,1,1,1.679,0v11.83A2.291,2.291,0,0,1,2933.448,1181.225Z" transform="translate(-2884.911 -1141.325)"/>
    <path id="Path_5350" data-name="Path 5350" d="M2742.1,1249.014a2.291,2.291,0,0,1-2.288-2.288v-3.865a.84.84,0,1,1,1.679,0v3.865a.609.609,0,1,0,1.218,0V1245.6a.84.84,0,0,1,1.68,0v1.128A2.291,2.291,0,0,1,2742.1,1249.014Z" transform="translate(-2714.986 -1208.599)"/>
    <path id="Path_5351" data-name="Path 5351" d="M2740.653,1208.765a.839.839,0,0,1-.839-.84v-.457a.84.84,0,1,1,1.679,0v.457A.84.84,0,0,1,2740.653,1208.765Z" transform="translate(-2714.986 -1177.168)"/>
    <g id="Group_4221" data-name="Group 4221" transform="translate(38.461 33.718)">
      <path id="Path_5352" data-name="Path 5352" d="M2863.876,1285.47a2.291,2.291,0,0,1-2.289-2.288v-2.248a.84.84,0,0,1,1.679,0v2.248a.609.609,0,1,0,1.218,0v-7.224a.84.84,0,0,1,1.679,0v7.224A2.291,2.291,0,0,1,2863.876,1285.47Z" transform="translate(-2861.588 -1271.709)"/>
      <path id="Path_5353" data-name="Path 5353" d="M2888.311,1246.8a.84.84,0,0,1-.84-.84v-.457a.839.839,0,1,1,1.679,0v.457A.84.84,0,0,1,2888.311,1246.8Z" transform="translate(-2884.574 -1244.666)"/>
    </g>
    <g id="Group_4222" data-name="Group 4222" transform="translate(43.073 11.406)">
      <path id="Path_5354" data-name="Path 5354" d="M2904.585,1052.914a4.269,4.269,0,0,1-1.192-.17.84.84,0,1,1,.468-1.613,2.566,2.566,0,0,0,2.483-4.327.84.84,0,0,1,1.156-1.219,4.247,4.247,0,0,1-2.914,7.328Z" transform="translate(-2902.787 -1045.356)"/>
      <path id="Path_5355" data-name="Path 5355" d="M2910.455,1103.157a.84.84,0,0,1-.36-1.6,1.989,1.989,0,0,0,.945-2.646.84.84,0,1,1,1.518-.719,3.67,3.67,0,0,1-1.744,4.882A.839.839,0,0,1,2910.455,1103.157Z" transform="translate(-2908.85 -1091.852)"/>
    </g>
  </g>
</svg>
